:FULLY-SPECIFIED
:FORCE-ALL-JOINTS-BE-3DOF
:DEGREES
510
root -4.8392 15.0344 -42.2191 7.38003 -12.2802 -15.0852
lfemur -55.9999 41.4003 -11.542
ltibia 73.1897 -0 0
lfoot -21.8349 30.1581 -0.306439
ltoes 10.9176 -0 0
rfemur -8.5393 -16.0485 0.432206
rtibia 47.1116 -0 0
rfoot 10.2209 -15.8305 -1.01845
rtoes 7.89148 -0 0
lowerback 15.2536 1.43649 -4.86967
upperback -1.62784 1.37506 3.84756
thorax -10.6585 1.08646 6.64606
lowerneck 3.20995 -14.7587 -17.7955
upperneck 5.97455 -21.7693 20.1108
head 5.5136 -10.9178 7.66539
lclavicle 1.91579e-14 -1.23246e-14 0
lhumerus -13.5152 -65.3592 106.403
lradius 83.2354 -0 0
lwrist 34.0729 0 0
lhand -6.38021 38.6194 -0.539531
lfingers 7.12502 -0 0
lthumb 19.4507 67.4012 -0.578702
rclavicle 1.91579e-14 -1.23246e-14 0
rhumerus 61.866 39.0278 -21.1074
rradius 113.425 -0 0
rwrist -30.3155 0 0
rhand 7.85059 -13.8236 -0.223012
rfingers 7.12502 -0 0
rthumb 33.0787 -40.8632 -0.19379
511
root -4.90249 15.0224 -42.2442 7.39641 -14.7253 -15.0717
lfemur -54.3429 40.9559 -9.55804
ltibia 73.2768 -0 0
lfoot -21.2552 29.0382 -0.321694
ltoes 9.29848 -0 0
rfemur -8.71932 -16.6379 -0.132978
rtibia 46.6693 -0 0
rfoot 9.79485 -14.8895 -1.1123
rtoes 6.68685 -0 0
lowerback 15.4531 1.5132 -5.03878
upperback -1.58522 1.42562 3.76314
thorax -10.7373 1.1185 6.63464
lowerneck 2.79972 -14.5966 -17.9094
upperneck 6.63732 -21.552 19.8259
head 5.7078 -10.786 7.59217
lclavicle 1.91579e-14 -1.23246e-14 0
lhumerus -17.4893 -63.2509 109.214
lradius 84.1868 -0 0
lwrist 35.8554 0 0
lhand -7.39886 39.2632 -0.605262
lfingers 7.12502 -0 0
lthumb 18.469 68.1107 -0.649684
rclavicle 1.91579e-14 -1.23246e-14 0
rhumerus 57.8307 40.1131 -22.9751
rradius 115.475 -0 0
rwrist -31.7122 0 0
rhand 9.31174 -13.7642 -0.306269
rfingers 7.12502 -0 0
rthumb 34.4723 -40.589 -0.289572
512
root -4.96578 15.0103 -42.2693 7.33689 -16.6508 -15.0004
lfemur -52.7578 40.3406 -7.76588
ltibia 73.4063 -0 0
lfoot -20.7618 27.9427 -0.328437
ltoes 7.7076 -0 0
rfemur -9.13255 -17.1377 -0.500108
rtibia 46.4785 -0 0
rfoot 9.24251 -14.0463 -1.17436
rtoes 5.46221 -0 0
lowerback 15.6771 1.56814 -5.218
upperback -1.52962 1.4442 3.68164
thorax -10.8093 1.13551 6.6408
lowerneck 2.42199 -14.4528 -18.0223
upperneck 7.24227 -21.3545 19.5669
head 5.88536 -10.6673 7.52722
lclavicle 1.91579e-14 -1.23246e-14 0
lhumerus -20.798 -61.0847 111.391
lradius 85.1294 -0 0
lwrist 37.5081 0 0
lhand -8.41485 39.9046 -0.65648
lfingers 7.12502 -0 0
lthumb 17.4897 68.8189 -0.705187
rclavicle 1.91579e-14 -1.23246e-14 0
rhumerus 53.7721 41.055 -24.9278
rradius 117.646 -0 0
rwrist -33.1713 0 0
rhand 10.8198 -13.7602 -0.392218
rfingers 7.12502 -0 0
rthumb 35.9105 -40.3664 -0.394711
513
root -5.02907 14.9983 -42.2945 7.2082 -18.1669 -14.8669
lfemur -51.2076 39.5671 -6.14846
ltibia 73.5522 -0 0
lfoot -20.3455 26.8744 -0.328765
ltoes 6.12983 -0 0
rfemur -9.78112 -17.5641 -0.687803
rtibia 46.5201 -0 0
rfoot 8.5741 -13.273 -1.20844
rtoes 4.22948 -0 0
lowerback 15.9199 1.60506 -5.40592
upperback -1.46253 1.43595 3.60138
thorax -10.874 1.13977 6.66061
lowerneck 2.07139 -14.3213 -18.1289
upperneck 7.79395 -21.168 19.3226
head 6.04571 -10.5568 7.46708
lclavicle 1.91579e-14 -1.23246e-14 0
lhumerus -23.6277 -58.8677 113.085
lradius 86.0714 -0 0
lwrist 39.0593 0 0
lhand -9.42599 40.5422 -0.693177
lfingers 7.12502 -0 0
lthumb 16.5151 69.5245 -0.745167
rclavicle 1.91579e-14 -1.23246e-14 0
rhumerus 49.6795 41.8398 -26.9695
rradius 119.858 -0 0
rwrist -34.6436 0 0
rhand 12.3366 -13.8098 -0.475986
rfingers 7.12502 -0 0
rthumb 37.3568 -40.1974 -0.503765
